Coordinates
version=1
nRows=12
nColumns=24
inDegrees=yes

Units are S.I. units (second, meters, Newtons, ...)
Angles are in degrees.

endheader
time	pelvis_tilt	pelvis_list	pelvis_rotation	pelvis_tx	pelvis_ty	pelvis_tz	hip_flexion_r	hip_adduction_r	hip_rotation_r	knee_angle_r	ankle_angle_r	subtalar_angle_r	mtp_angle_r	hip_flexion_l	hip_adduction_l	hip_rotation_l	knee_angle_l	ankle_angle_l	subtalar_angle_l	mtp_angle_l	lumbar_extension	lumbar_bending	lumbar_rotation
      7.50000000	     -7.42023849	     -4.66560067	     14.85524704	      0.45817590	      1.02027290	      1.44312021	     24.17432448	      1.58283648	    -13.83646917	    -23.43200380	      9.80882560	      7.49668342	    -37.96897335	      3.41000035	     -7.54761209	     17.02646902	    -40.58263130	    -19.07883789	     14.50408579	    -35.10177648	     -4.16777104	      4.40748820	    -10.95455463
      7.51000000	     -7.24742766	     -4.34371474	     14.75226576	      0.45840256	      1.02234116	      1.44363496	     22.80433025	      1.58610733	    -13.99595444	    -22.89948027	     10.22943866	      8.08720636	    -38.12869242	      4.60392792	     -6.86536551	     17.38738070	    -42.13672229	    -18.31542492	     14.69148750	    -31.42708884	     -4.38668885	      4.11810609	    -10.88944508
      7.52000000	     -7.09204290	     -3.99038365	     14.53274269	      0.45853320	      1.02440370	      1.44418770	     21.41051446	      1.63547454	    -13.85267765	    -22.24592700	     10.48426687	      8.38746071	    -38.13759124	      5.78146175	     -6.17442671	     17.52625119	    -43.49050662	    -16.96217411	     14.80117142	    -31.25184456	     -4.59818391	      3.78829214	    -10.67884164
      7.53000000	     -6.89022526	     -3.63339509	     14.34830673	      0.45858931	      1.02649008	      1.44461407	     19.92431955	      1.65798807	    -13.81890925	    -21.50737902	     10.73083623	      8.79807123	    -38.20595340	      6.88887263	     -5.49108789	     17.67597425	    -44.60824078	    -15.45332592	     14.81303296	    -30.93854334	     -4.84906038	      3.47125909	    -10.51422110
      7.54000000	     -6.75268377	     -3.27849253	     14.07634532	      0.45852342	      1.02844822	      1.44503919	     18.50393203	      1.68683260	    -13.66075755	    -20.72825680	     10.90862354	      9.11898794	    -38.26464708	      8.03141374	     -4.81294918	     17.67040694	    -45.50761463	    -13.77291551	     14.59873766	    -30.68390101	     -5.02884735	      3.14247427	    -10.24263166
      7.55000000	     -6.55427000	     -2.92658601	     13.80342555	      0.45839622	      1.03040348	      1.44539240	     16.98527823	      1.71179453	    -13.55698703	    -19.86746537	     11.21579720	      9.45294285	    -39.80434021	      9.06286365	     -4.17291829	     17.63786875	    -46.13312884	    -12.24873961	     14.40461653	    -27.44670763	     -5.26854835	      2.83640716	     -9.97716382
      7.56000000	     -6.40417636	     -2.55579520	     13.45783558	      0.45813455	      1.03220299	      1.44575312	     15.52312831	      1.71256321	    -13.32368258	    -19.00034142	     11.31729520	      9.78283309	    -39.80742297	     10.11584358	     -3.53040324	     17.48018000	    -46.55303485	    -10.38534109	     14.09711669	    -27.23378884	     -5.46494467	      2.49822955	     -9.62791915
      7.57000000	     -6.27032615	     -2.20189807	     13.08081156	      0.45778539	      1.03387168	      1.44609744	     14.06699309	      1.70656170	    -13.11976316	    -18.08061705	     11.35877324	     10.14666106	    -39.84250148	     11.15122307	     -2.93539265	     17.26062853	    -46.73201766	     -8.52670885	     13.77342010	    -27.01925850	     -5.63730678	      2.17371068	     -9.22708394
      7.58000000	     -6.16195860	     -1.85786066	     12.67377098	      0.45731891	      1.03538541	      1.44640440	     12.63861497	      1.68347091	    -12.90144093	    -17.13312963	     11.35273444	     10.54242242	    -39.89400759	     12.17910960	     -2.37305386	     16.98997312	    -46.68098171	     -6.71005386	     13.45098419	    -26.81609358	     -5.78178786	      1.86082732	     -8.79847464
      7.59000000	     -5.97914118	     -1.50961706	     12.29238399	      0.45677244	      1.03683123	      1.44665941	     11.11072062	      1.65026802	    -12.71215230	    -16.13484068	     11.32135355	     10.94975103	    -39.96636913	     13.10270289	     -1.85314776	     16.70370893	    -46.41704101	     -5.01504940	     13.12200187	    -26.59540750	     -6.01433649	      1.55875925	     -8.40960767
      7.60000000	     -5.87438387	     -1.19020476	     11.87558317	      0.45608829	      1.03802636	      1.44690785	      9.70081147	      1.60399201	    -12.52887192	    -15.16465609	     11.24141424	     11.36638286	    -40.03509047	     14.08263250	     -1.38349833	     16.35559609	    -45.94420816	     -3.44316499	     12.78495375	    -26.40748996	     -6.16058930	      1.27052135	     -7.97757088
      7.61000000	     -5.80957910	     -0.89782298	     11.44392874	      0.45527293	      1.03899142	      1.44713761	      8.37176818	      1.55056384	    -12.36087759	    -14.23309479	     11.12439344	     11.78456620	    -40.08888509	     15.08951552	     -0.97384578	     15.94998467	    -45.28851274	     -2.02063578	     12.44918099	    -26.27010166	     -6.26627993	      1.00307628	     -7.53259643
